<svg viewBox="0 0 986 237" fill="yellow" xmlns="http://www.w3.org/2000/svg" xmlns:xlink="http://www.w3.org/1999/xlink">
    <g filter="url(#prefix__filter0_d_14_8)">
        <path fill-rule="evenodd" clip-rule="evenodd"
            d="M0 89v87c27 0 191.704-50.59 258-46 65 4.5 289 42.847 347 53.5 13.738 2.523 27.653 4.844 41.455 6.971C761.4 208.183 878.044 187.541 986 144.279V0H0v89z" />
    </g>
    <path
        d="M368.08 59l-3.515-30.313h3.594l2.07 18.457.273 3.067h.098l.391-3.066 3.183-18.458h3.594l3.633 19.2.371 2.93h.098l.234-2.95 2.285-19.18h3.086L383.803 59h-3.73l-3.907-20.547-.41-3.086h-.097l-.372 3.086L371.772 59h-3.692zm49.933-1.445c-2.903 1.38-5.651 2.07-8.242 2.07-1.966 0-3.724-.488-5.273-1.465-1.55-.976-2.793-2.37-3.731-4.18a12.74 12.74 0 01-1.387-5.84c0-1.992.443-3.906 1.329-5.742.885-1.836 2.122-3.261 3.711-4.277 1.588-1.029 3.359-1.543 5.312-1.543 2.591 0 4.668.925 6.23 2.774 1.576 1.849 2.364 4.7 2.364 8.554v.782h-15.039c0 1.51.312 2.89.937 4.14.638 1.25 1.472 2.188 2.5 2.813 1.029.625 2.201.937 3.516.937 2.344 0 4.935-.781 7.773-2.344v3.32zm-14.511-11.582h10.878v-.528c0-1.784-.436-3.203-1.308-4.258-.873-1.054-2.038-1.581-3.496-1.581-1.472 0-2.748.54-3.828 1.62-1.068 1.068-1.817 2.65-2.246 4.747zM438.552 59V30.523h-6.524v-3.046h10.156v28.496h6.817V59h-10.449zm45.323-.625c-2.435.82-4.753 1.23-6.953 1.23-2.188 0-4.134-.5-5.84-1.503A10.805 10.805 0 01467.117 54c-.95-1.732-1.426-3.698-1.426-5.898 0-3.308 1.075-6.055 3.223-8.243 2.162-2.187 4.766-3.28 7.813-3.28 2.252 0 4.635.422 7.148 1.269v3.496c-2.539-1.16-4.811-1.739-6.816-1.739a7.482 7.482 0 00-3.75.997c-1.172.65-2.077 1.673-2.715 3.066a10.216 10.216 0 00-.957 4.297c0 1.966.612 3.841 1.836 5.625 1.237 1.784 3.17 2.676 5.8 2.676.795 0 1.576-.052 2.344-.157.768-.117 2.188-.527 4.258-1.23v3.496zm23.448 1.23c-3.125 0-5.625-1.087-7.5-3.261-1.875-2.188-2.812-4.942-2.812-8.262 0-3.32.937-6.068 2.812-8.242 1.875-2.175 4.375-3.262 7.5-3.262 3.112 0 5.606 1.087 7.481 3.262 1.875 2.174 2.812 4.922 2.812 8.242 0 3.32-.937 6.074-2.812 8.262-1.875 2.174-4.369 3.261-7.481 3.261zm0-3.027c1.941 0 3.483-.755 4.629-2.266 1.146-1.51 1.719-3.587 1.719-6.23 0-2.63-.573-4.7-1.719-6.21-1.146-1.511-2.688-2.267-4.629-2.267-1.953 0-3.502.756-4.648 2.266s-1.719 3.58-1.719 6.211c0 2.643.573 4.72 1.719 6.23 1.146 1.51 2.695 2.266 4.648 2.266zM529.522 59V37.184h3.183v5c1.003-2.123 1.934-3.588 2.793-4.395.873-.807 1.752-1.21 2.637-1.21 1.055 0 1.901.416 2.539 1.25.651.82.977 1.991.977 3.515v1.172c.429-1.328.944-2.403 1.543-3.223.612-.833 1.243-1.49 1.894-1.973a3.612 3.612 0 012.246-.742c.938 0 1.739.397 2.403 1.191.664.795.996 2.377.996 4.747V59h-3.184V44.098c0-1.224-.039-2.058-.117-2.5-.078-.456-.234-.801-.469-1.035-.234-.235-.488-.352-.761-.352-.678 0-1.407.52-2.188 1.562-.768 1.03-1.556 2.741-2.363 5.137V59h-3.047V44.117c0-1.927-.189-3.06-.566-3.398-.378-.339-.717-.508-1.016-.508-.664 0-1.38.58-2.149 1.738-.755 1.16-1.477 2.643-2.168 4.453V59h-3.183zm52.608-1.445c-2.903 1.38-5.651 2.07-8.242 2.07-1.966 0-3.724-.488-5.273-1.465-1.55-.976-2.793-2.37-3.731-4.18a12.738 12.738 0 01-1.386-5.84c0-1.992.442-3.906 1.328-5.742.885-1.836 2.122-3.261 3.711-4.277 1.588-1.029 3.359-1.543 5.312-1.543 2.591 0 4.668.925 6.231 2.774 1.575 1.849 2.363 4.7 2.363 8.554v.782h-15.039c0 1.51.312 2.89.937 4.14.638 1.25 1.472 2.188 2.5 2.813 1.029.625 2.201.937 3.516.937 2.344 0 4.935-.781 7.773-2.344v3.32zm-14.511-11.582h10.879v-.528c0-1.784-.437-3.203-1.309-4.258-.872-1.054-2.038-1.581-3.496-1.581-1.471 0-2.747.54-3.828 1.62-1.068 1.068-1.817 2.65-2.246 4.747zM416.612 119V88.687h5.918c3.555 0 5.931.274 7.129.82 1.211.535 2.116 1.329 2.715 2.384.599 1.054.899 2.259.899 3.613a8.81 8.81 0 01-.528 3.047 8.408 8.408 0 01-1.562 2.617c-.69.781-1.693 1.523-3.008 2.227 2.409.963 4.036 2.148 4.883 3.554.859 1.406 1.289 2.813 1.289 4.219 0 1.341-.365 2.643-1.094 3.906a7.248 7.248 0 01-3.027 2.91c-1.302.677-3.386 1.016-6.25 1.016h-7.364zm3.946-16.66h4.14c1.342-.56 2.318-1.146 2.93-1.758a6.106 6.106 0 001.387-2.07 6.634 6.634 0 00.469-2.52c0-1.432-.424-2.5-1.27-3.203-.833-.703-2.467-1.055-4.902-1.055h-2.754v10.606zm0 13.633h3.73c2.084 0 3.62-.489 4.61-1.465 1.002-.99 1.504-2.175 1.504-3.555a5.044 5.044 0 00-.821-2.793c-.547-.859-1.393-1.536-2.539-2.031-1.146-.508-2.943-.762-5.39-.762h-1.094v10.606zm37.53 3.632c-3.125 0-5.625-1.087-7.5-3.261-1.875-2.188-2.812-4.942-2.812-8.262 0-3.32.937-6.068 2.812-8.242 1.875-2.175 4.375-3.262 7.5-3.262 3.112 0 5.606 1.087 7.481 3.262 1.875 2.174 2.812 4.922 2.812 8.242 0 3.32-.937 6.074-2.812 8.262-1.875 2.174-4.369 3.261-7.481 3.261zm0-3.027c1.94 0 3.483-.755 4.629-2.266 1.146-1.51 1.719-3.587 1.719-6.23 0-2.63-.573-4.7-1.719-6.211-1.146-1.51-2.689-2.265-4.629-2.265-1.953 0-3.502.755-4.648 2.265-1.146 1.511-1.719 3.581-1.719 6.211 0 2.643.573 4.72 1.719 6.23 1.146 1.511 2.695 2.266 4.648 2.266zm32.824 3.027c-3.125 0-5.625-1.087-7.5-3.261-1.875-2.188-2.813-4.942-2.813-8.262 0-3.32.938-6.068 2.813-8.242 1.875-2.175 4.375-3.262 7.5-3.262 3.112 0 5.605 1.087 7.48 3.262 1.875 2.174 2.813 4.922 2.813 8.242 0 3.32-.938 6.074-2.813 8.262-1.875 2.174-4.368 3.261-7.48 3.261zm0-3.027c1.94 0 3.483-.755 4.629-2.266 1.145-1.51 1.718-3.587 1.718-6.23 0-2.63-.573-4.7-1.718-6.211-1.146-1.51-2.689-2.265-4.629-2.265-1.953 0-3.503.755-4.649 2.265-1.146 1.511-1.718 3.581-1.718 6.211 0 2.643.572 4.72 1.718 6.23 1.146 1.511 2.696 2.266 4.649 2.266zm24.093 1.27V114a14.715 14.715 0 004.629 2.012c1.627.377 3.007.566 4.14.566 1.836 0 3.158-.293 3.965-.879.807-.599 1.211-1.341 1.211-2.226 0-.586-.189-1.088-.566-1.504-.378-.417-1.316-.931-2.813-1.543l-1.25-.508-2.519-.996c-2.709-1.055-4.421-2.025-5.137-2.91-.703-.899-1.055-1.986-1.055-3.262 0-1.797.69-3.275 2.07-4.434 1.394-1.158 3.646-1.738 6.758-1.738 2.331 0 4.538.339 6.621 1.016v3.301c-2.395-.86-4.648-1.29-6.757-1.29-1.537 0-2.741.274-3.614.821-.859.534-1.289 1.204-1.289 2.012 0 .781.371 1.406 1.113 1.874.756.469 1.973 1.01 3.653 1.622l2.461.898c2.252.82 3.834 1.712 4.746 2.676.911.963 1.367 2.168 1.367 3.613 0 1.888-.729 3.444-2.187 4.668-1.446 1.211-3.763 1.816-6.954 1.816-2.786 0-5.651-.585-8.593-1.757z"
        fill="#6624eb" />
    <defs>
        <filter id="prefix__filter0_d_14_8" x="-34" y="-28" width="1054" height="264.814" filterUnits="userSpaceOnUse"
            color-interpolation-filters="sRGB">
            <fecolormatrix in="SourceAlpha" type="matrix" values="0 0 0 0 0 0 0 0 0 0 0 0 0 0 0 0 0 0 127 0"
                result="hardAlpha" />
            <fegaussianblur stdDeviation="17" />
            <fecolormatrix type="matrix" values="0 0 0 0 0.867327 0 0 0 0 0.987996 0 0 0 0 0.384649 0 0 0 0.4 0" />
            <feblend mode="normal" in="SourceGraphic" in2="effect1_dropShadow_14_8" result="shape" />
        </filter>
    </defs>
</svg>
