<svg xmlns="http://www.w3.org/2000/svg" viewBox="0 0 256 256" fill="currentColor"><path d="M80.01 44.012c-19.877 0-36 16.128-36 36 0 19.88 16.123 36 36 36 5.741 0 11.15-1.388 15.968-3.781 2.471 5.37 4.031 10.945 4.031 15.78 0 4.845-1.56 10.404-4.039 15.766-4.816-2.39-10.223-3.765-15.96-3.765-19.877 0-36 16.128-36 36 0 19.88 16.123 36.004 36 36 19.871 0 36.007-16.124 36.007-36 0-5.744-1.385-11.158-3.781-15.977 5.368-2.47 10.938-4.023 15.773-4.023 4.847 0 10.408 1.551 15.774 4.023-2.395 4.818-3.774 10.227-3.774 15.969 0 19.872 16.128 35.992 36 35.992 19.868 0 36-16.12 36-35.992 0-19.872-16.14-35.992-36-35.992-5.737 0-11.145 1.375-15.96 3.765-2.481-5.369-4.04-10.93-4.04-15.765 0-4.846 1.555-10.416 4.024-15.781 4.82 2.395 10.23 3.78 15.976 3.78 19.872 0 36.008-16.123 36.008-36 0-19.871-16.136-36-36.008-36-19.876 0-36 16.129-36 36 0 5.736 1.379 11.133 3.766 15.946-5.37 2.485-10.934 4.055-15.766 4.055-4.84 0-10.403-1.567-15.765-4.047 2.39-4.814 3.773-10.216 3.773-15.953 0-19.872-16.136-36-36.008-36zm0 16c11.031 0 20.007 8.964 20.007 20 0 2.513-.52 4.893-1.367 7.11-.66-.587-1.35-1.163-1.953-1.767-.31-.309-.632-.542-.953-.789-.183-.227-.344-.468-.555-.68l-9.531-9.53a7.999 7.999 0 00-11.313 0 7.999 7.999 0 000 11.312l9.532 9.531c.288.29.61.523.93.758.193.235.35.475.577.703.609.608 1.191 1.302 1.782 1.969-2.23.858-4.628 1.383-7.157 1.383-11.04 0-20-8.96-20-20 0-11.036 8.96-20 20-20zm96 0c11.031 0 20.007 8.964 20.007 20 0 11.04-8.972 20-20.008 20-2.532 0-4.933-.523-7.164-1.383.59-.666 1.174-1.361 1.781-1.969.254-.253.43-.52.641-.781.285-.216.576-.421.836-.68l9.547-9.515c3.124-3.12 3.14-8.189.023-11.32-3.12-3.125-8.188-3.132-11.32-.016l-9.547 9.523c-.244.244-.434.516-.64.781-.286.226-.576.427-.852.703-.601.602-1.288 1.174-1.945 1.758-.846-2.214-1.36-4.59-1.36-7.101 0-11.036 8.96-20 20-20zm-62.454 53.547l2.688.851c3.932 1.024 7.89 1.602 11.758 1.602 3.856 0 7.81-.578 11.742-1.602l2.703-.851-.852 2.703c-1.016 3.928-1.586 7.894-1.586 11.75 0 3.864.57 7.814 1.586 11.742l.852 2.703-2.703-.851c-3.932-1.02-7.886-1.594-11.742-1.594-3.856 0-7.81.574-11.743 1.594l-2.71.851.851-2.695c1.024-3.932 1.602-7.89 1.602-11.75 0-3.852-.574-7.818-1.594-11.75zM80.01 156.012c2.515 0 4.899.517 7.118 1.367-.583.656-1.158 1.337-1.758 1.937-.264.264-.455.54-.672.813-.283.216-.57.42-.828.68l-9.531 9.554c-3.12 3.124-3.109 8.197.015 11.313a7.993 7.993 0 0011.305-.016l9.539-9.547c.248-.248.44-.533.648-.804.28-.222.566-.41.836-.68.605-.605 1.292-1.186 1.953-1.773.86 2.228 1.383 4.627 1.383 7.156 0 11.044-8.972 20.004-20.008 20-11.04 0-20-8.96-20-20 0-11.036 8.96-20 20-20zm96 0c11.036 0 20 8.956 20 19.992 0 11.036-8.972 19.992-20 19.992-11.036 0-20-8.956-20-19.992 0-2.524.52-4.916 1.375-7.14.66.585 1.343 1.162 1.946 1.765.216.217.448.363.672.547.245.337.492.673.796.976l9.555 9.524a7.993 7.993 0 0011.305-.016c3.12-3.124 3.116-8.188-.008-11.304l-9.547-9.532c-.209-.208-.447-.366-.672-.547-.244-.323-.479-.65-.789-.96-.6-.6-1.175-1.282-1.758-1.938 2.22-.85 4.609-1.367 7.125-1.367z" font-family="none" font-weight="none" font-size="none" text-anchor="none"/></svg>
