<svg xmlns="http://www.w3.org/2000/svg"  viewBox="0 0 256 256"><path d="M88.889 39.111c-17.675 0-32 14.326-32 32V184.89c0 17.675 14.325 32 32 32h78.222c17.675 0 32-14.325 32-32v-74.667h-49.777c-11.784 0-21.334-9.55-21.334-21.333V39.111zm53.333 1.222V88.89A7.111 7.111 0 00149.334 96h48.555zm-39.11 94.778h49.777a7.111 7.111 0 010 14.223h-49.778a7.111 7.111 0 010-14.223zm0 32h49.777a7.111 7.111 0 010 14.223h-49.778a7.111 7.111 0 010-14.223z" fill="#fbeadb" stroke-miterlimit="10" font-family="none" font-weight="none" font-size="none" text-anchor="none"/></svg>
