<svg xmlns="http://www.w3.org/2000/svg" viewBox="0 0 256 256"><path d="M56.889 72.889C69.632 72.889 80 84.053 80 97.778c0 13.724-10.368 24.889-23.111 24.889s-23.111-11.165-23.111-24.89c0-13.724 10.368-24.888 23.111-24.888zm31.065 67.253c-21.774 10.532-32.004 27.385-33.998 37.636H26.969c-8.345 0-13.32-7.499-12.686-14.101C16.217 143.339 34.532 128 56.889 128c12.249 0 23.268 4.63 31.065 12.142zm150.208 23.506c.647 6.777-4.42 14.13-12.707 14.13h-26.966c-2.005-10.308-12.274-27.129-33.998-37.636C172.285 132.63 183.303 128 195.556 128c22.336 0 40.672 15.325 42.606 35.648zM195.556 72.89c12.743 0 23.11 11.164 23.11 24.889 0 13.724-10.367 24.889-23.11 24.889-12.743 0-23.111-11.165-23.111-24.89 0-13.724 10.368-24.888 23.11-24.888zm-12.722 102.645c6.77 12.932-3.74 27.133-17.746 27.133H87.36c-13.447 0-24.779-13.693-17.746-27.129 9.462-18.08 31.677-29.76 56.608-29.76 24.932 0 47.15 11.68 56.612 29.756zM126.222 67.556c18.624 0 33.778 15.95 33.778 35.555 0 19.606-15.154 35.556-33.778 35.556s-33.777-15.95-33.777-35.556c0-19.605 15.153-35.555 33.777-35.555z" fill="#fbeadb" stroke-miterlimit="10" font-family="none" font-weight="none" font-size="none" text-anchor="none"/></svg>
