<svg xmlns="http://www.w3.org/2000/svg"  viewBox="0 0 256 256"><path d="M49.778 42.667c-13.746 0-24.89 11.143-24.89 24.889v7.11h163.557v-7.11c0-13.746-11.143-24.89-24.89-24.89zm152.889 42.666v32h28.444v-7.11c0-13.746-11.143-24.89-24.889-24.89zM24.889 96v49.778c0 13.746 11.143 24.889 24.889 24.889h113.778c13.746 0 24.889-11.143 24.889-24.889V96zm177.778 42.667v7.111c0 21.6-17.511 39.111-39.111 39.111h-96v3.556c0 13.745 11.143 24.889 24.889 24.889h113.777c13.746 0 24.89-11.144 24.89-24.89v-49.777z" fill="#fbeadb" font-family="none" font-weight="none" font-size="none" text-anchor="none"/></svg>
