<svg xmlns="http://www.w3.org/2000/svg" viewBox="0 0 256 256"><path d="M128 128c-23.527 0-42.667-19.936-42.667-44.444 0-24.509 19.14-44.445 42.667-44.445s42.667 19.936 42.667 44.445c0 24.508-19.14 44.444-42.667 44.444zm73.252 50.45c5.525 15.147-5.75 31.328-21.885 31.328h-31.221L135.822 172.8l5.39-10.784c-4.238-.963-8.664-1.51-13.212-1.51-4.547 0-8.978.547-13.212 1.51l5.39 10.784-12.327 36.978H76.629c-16.042 0-27.438-16.092-21.884-31.324 10.137-27.748 39.573-46.39 73.255-46.39 33.682 0 63.118 18.642 73.252 46.386z" fill="#fbeadb" stroke-miterlimit="10" font-family="none" font-weight="none" font-size="none" text-anchor="none"/></svg>
