<svg xmlns="http://www.w3.org/2000/svg" viewBox="0 0 256 256"><path d="M81.778 28.444c-19.605 0-35.556 15.95-35.556 35.556 0 14.547 8.793 27.063 21.334 32.563v62.875c-12.541 5.5-21.334 18.015-21.334 32.562 0 19.606 15.95 35.556 35.556 35.556 19.605 0 35.555-15.95 35.555-35.556 0-14.174-8.36-26.397-20.388-32.104a7.66 7.66 0 015-3.792l54.291-9.826c14.608-3.045 26.044-13.927 30.34-27.646 13.525-5.035 23.202-18.042 23.202-33.299 0-19.605-15.95-35.555-35.556-35.555-19.605 0-35.555 15.95-35.555 35.555 0 12.88 6.907 24.143 17.187 30.382a11.929 11.929 0 01-5.27 2.681l-54.306 9.833c-.094.02-.184.05-.278.07V96.563c12.54-5.5 21.333-18.016 21.333-32.563 0-19.605-15.95-35.556-35.555-35.556z" fill="#fbeadb" stroke-miterlimit="10" font-family="none" font-weight="none" font-size="none" text-anchor="none"/></svg>
