<svg xmlns="http://www.w3.org/2000/svg" viewBox="0 0 256 256"><path d="M221.98 118.09a8.765 8.765 0 01-5.624 11.048l-5.366 1.746a83.495 83.495 0 01-1.521 12.892c3.982 9.152 4.348 19.26 1.027 29.486l-.636 1.963c-1.497 4.605-6.443 7.125-11.047 5.629l-5.423-1.76a82.931 82.931 0 01-8.75 9.585c-2.169 9.732-7.808 18.112-16.494 24.427l-1.668 1.212a8.768 8.768 0 01-12.248-1.937l-3.34-4.598a83.132 83.132 0 01-12.689 2.56c-7.484 6.628-16.992 10.102-27.758 10.102h-2.066a8.768 8.768 0 01-8.768-8.768v-5.707a82.29 82.29 0 01-11.78-5.365c-9.916.967-19.665-1.814-28.373-8.139l-1.667-1.212a8.768 8.768 0 01-1.938-12.25l3.324-4.575a83.001 83.001 0 01-6.421-11.35c-8.57-5.07-14.78-13.017-18.094-23.214l-.637-1.963a8.771 8.771 0 015.629-11.05l5.365-1.743c.16-4.241.668-8.554 1.518-12.885-3.982-9.159-4.352-19.264-1.02-29.493l.636-1.96a8.77 8.77 0 0111.05-5.628l5.42 1.76a83.381 83.381 0 018.757-9.593c2.169-9.731 7.811-18.112 16.498-24.42l1.667-1.212c3.918-2.848 9.401-1.977 12.25 1.942l3.334 4.59a83.088 83.088 0 0112.686-2.56c7.47-6.62 16.978-10.094 27.745-10.094h2.065a8.768 8.768 0 018.768 8.768v5.706a82.402 82.402 0 0111.773 5.362c9.92-.956 19.67 1.813 28.38 8.139l1.668 1.212c3.918 2.845 4.786 8.327 1.938 12.246l-3.328 4.58a83.001 83.001 0 016.42 11.348c8.566 5.067 14.781 13.014 18.095 23.211zM78.223 135.112a7.111 7.111 0 100-14.223 7.111 7.111 0 000 14.223zM128 152.89c13.721 0 24.89-11.164 24.89-24.889 0-13.724-11.169-24.889-24.89-24.889-13.72 0-24.889 11.165-24.889 24.89 0 13.724 11.168 24.888 24.89 24.888zm49.778-17.778a7.111 7.111 0 100-14.223 7.111 7.111 0 000 14.223z" fill="#fbeadb" stroke-miterlimit="10" font-family="none" font-weight="none" font-size="none" text-anchor="none"/></svg>
