<svg xmlns="http://www.w3.org/2000/svg" style="display: none;">
    <defs>


        <symbol id="file" viewBox="0 0 24 24" fill="none">
            <g id="SVGRepo_bgCarrier" stroke-width="0"></g>
            <g id="SVGRepo_tracerCarrier" stroke-linecap="round" stroke-linejoin="round"></g>
            <g id="SVGRepo_iconCarrier">
                <path
                    d="M9 17H15M9 13H15M9 9H10M13 3H8.2C7.0799 3 6.51984 3 6.09202 3.21799C5.71569 3.40973 5.40973 3.71569 5.21799 4.09202C5 4.51984 5 5.0799 5 6.2V17.8C5 18.9201 5 19.4802 5.21799 19.908C5.40973 20.2843 5.71569 20.5903 6.09202 20.782C6.51984 21 7.0799 21 8.2 21H15.8C16.9201 21 17.4802 21 17.908 20.782C18.2843 20.5903 18.5903 20.2843 18.782 19.908C19 19.4802 19 18.9201 19 17.8V9M13 3L19 9M13 3V7.4C13 7.96005 13 8.24008 13.109 8.45399C13.2049 8.64215 13.3578 8.79513 13.546 8.89101C13.7599 9 14.0399 9 14.6 9H19"
                     stroke-width="2" stroke-linecap="round" stroke-linejoin="round"></path>
            </g>
        </symbol>

        <symbol id="setting" viewBox="0 0 24 24" fill="none">
            <g id="SVGRepo_bgCarrier" stroke-width="0"></g>
            <g id="SVGRepo_tracerCarrier" stroke-linecap="round" stroke-linejoin="round"></g>
            <g id="SVGRepo_iconCarrier">
                <path fill-rule="evenodd" clip-rule="evenodd"
                    d="M12 8.25C9.92894 8.25 8.25 9.92893 8.25 12C8.25 14.0711 9.92894 15.75 12 15.75C14.0711 15.75 15.75 14.0711 15.75 12C15.75 9.92893 14.0711 8.25 12 8.25ZM9.75 12C9.75 10.7574 10.7574 9.75 12 9.75C13.2426 9.75 14.25 10.7574 14.25 12C14.25 13.2426 13.2426 14.25 12 14.25C10.7574 14.25 9.75 13.2426 9.75 12Z"
                    fill="#000000"></path>
                <path fill-rule="evenodd" clip-rule="evenodd"
                    d="M11.9747 1.25C11.5303 1.24999 11.1592 1.24999 10.8546 1.27077C10.5375 1.29241 10.238 1.33905 9.94761 1.45933C9.27379 1.73844 8.73843 2.27379 8.45932 2.94762C8.31402 3.29842 8.27467 3.66812 8.25964 4.06996C8.24756 4.39299 8.08454 4.66251 7.84395 4.80141C7.60337 4.94031 7.28845 4.94673 7.00266 4.79568C6.64714 4.60777 6.30729 4.45699 5.93083 4.40743C5.20773 4.31223 4.47642 4.50819 3.89779 4.95219C3.64843 5.14353 3.45827 5.3796 3.28099 5.6434C3.11068 5.89681 2.92517 6.21815 2.70294 6.60307L2.67769 6.64681C2.45545 7.03172 2.26993 7.35304 2.13562 7.62723C1.99581 7.91267 1.88644 8.19539 1.84541 8.50701C1.75021 9.23012 1.94617 9.96142 2.39016 10.5401C2.62128 10.8412 2.92173 11.0602 3.26217 11.2741C3.53595 11.4461 3.68788 11.7221 3.68786 12C3.68785 12.2778 3.53592 12.5538 3.26217 12.7258C2.92169 12.9397 2.62121 13.1587 2.39007 13.4599C1.94607 14.0385 1.75012 14.7698 1.84531 15.4929C1.88634 15.8045 1.99571 16.0873 2.13552 16.3727C2.26983 16.6469 2.45535 16.9682 2.67758 17.3531L2.70284 17.3969C2.92507 17.7818 3.11058 18.1031 3.28089 18.3565C3.45817 18.6203 3.64833 18.8564 3.89769 19.0477C4.47632 19.4917 5.20763 19.6877 5.93073 19.5925C6.30717 19.5429 6.647 19.3922 7.0025 19.2043C7.28833 19.0532 7.60329 19.0596 7.8439 19.1986C8.08452 19.3375 8.24756 19.607 8.25964 19.9301C8.27467 20.3319 8.31403 20.7016 8.45932 21.0524C8.73843 21.7262 9.27379 22.2616 9.94761 22.5407C10.238 22.661 10.5375 22.7076 10.8546 22.7292C11.1592 22.75 11.5303 22.75 11.9747 22.75H12.0252C12.4697 22.75 12.8407 22.75 13.1454 22.7292C13.4625 22.7076 13.762 22.661 14.0524 22.5407C14.7262 22.2616 15.2616 21.7262 15.5407 21.0524C15.686 20.7016 15.7253 20.3319 15.7403 19.93C15.7524 19.607 15.9154 19.3375 16.156 19.1985C16.3966 19.0596 16.7116 19.0532 16.9974 19.2042C17.3529 19.3921 17.6927 19.5429 18.0692 19.5924C18.7923 19.6876 19.5236 19.4917 20.1022 19.0477C20.3516 18.8563 20.5417 18.6203 20.719 18.3565C20.8893 18.1031 21.0748 17.7818 21.297 17.3969L21.3223 17.3531C21.5445 16.9682 21.7301 16.6468 21.8644 16.3726C22.0042 16.0872 22.1135 15.8045 22.1546 15.4929C22.2498 14.7697 22.0538 14.0384 21.6098 13.4598C21.3787 13.1586 21.0782 12.9397 20.7378 12.7258C20.464 12.5538 20.3121 12.2778 20.3121 11.9999C20.3121 11.7221 20.464 11.4462 20.7377 11.2742C21.0783 11.0603 21.3788 10.8414 21.6099 10.5401C22.0539 9.96149 22.2499 9.23019 22.1547 8.50708C22.1136 8.19546 22.0043 7.91274 21.8645 7.6273C21.7302 7.35313 21.5447 7.03183 21.3224 6.64695L21.2972 6.60318C21.0749 6.21825 20.8894 5.89688 20.7191 5.64347C20.5418 5.37967 20.3517 5.1436 20.1023 4.95225C19.5237 4.50826 18.7924 4.3123 18.0692 4.4075C17.6928 4.45706 17.353 4.60782 16.9975 4.79572C16.7117 4.94679 16.3967 4.94036 16.1561 4.80144C15.9155 4.66253 15.7524 4.39297 15.7403 4.06991C15.7253 3.66808 15.686 3.2984 15.5407 2.94762C15.2616 2.27379 14.7262 1.73844 14.0524 1.45933C13.762 1.33905 13.4625 1.29241 13.1454 1.27077C12.8407 1.24999 12.4697 1.24999 12.0252 1.25H11.9747ZM10.5216 2.84515C10.5988 2.81319 10.716 2.78372 10.9567 2.76729C11.2042 2.75041 11.5238 2.75 12 2.75C12.4762 2.75 12.7958 2.75041 13.0432 2.76729C13.284 2.78372 13.4012 2.81319 13.4783 2.84515C13.7846 2.97202 14.028 3.21536 14.1548 3.52165C14.1949 3.61826 14.228 3.76887 14.2414 4.12597C14.271 4.91835 14.68 5.68129 15.4061 6.10048C16.1321 6.51968 16.9974 6.4924 17.6984 6.12188C18.0143 5.9549 18.1614 5.90832 18.265 5.89467C18.5937 5.8514 18.9261 5.94047 19.1891 6.14228C19.2554 6.19312 19.3395 6.27989 19.4741 6.48016C19.6125 6.68603 19.7726 6.9626 20.0107 7.375C20.2488 7.78741 20.4083 8.06438 20.5174 8.28713C20.6235 8.50382 20.6566 8.62007 20.6675 8.70287C20.7108 9.03155 20.6217 9.36397 20.4199 9.62698C20.3562 9.70995 20.2424 9.81399 19.9397 10.0041C19.2684 10.426 18.8122 11.1616 18.8121 11.9999C18.8121 12.8383 19.2683 13.574 19.9397 13.9959C20.2423 14.186 20.3561 14.29 20.4198 14.373C20.6216 14.636 20.7107 14.9684 20.6674 15.2971C20.6565 15.3799 20.6234 15.4961 20.5173 15.7128C20.4082 15.9355 20.2487 16.2125 20.0106 16.6249C19.7725 17.0373 19.6124 17.3139 19.474 17.5198C19.3394 17.72 19.2553 17.8068 19.189 17.8576C18.926 18.0595 18.5936 18.1485 18.2649 18.1053C18.1613 18.0916 18.0142 18.045 17.6983 17.8781C16.9973 17.5075 16.132 17.4803 15.4059 17.8995C14.68 18.3187 14.271 19.0816 14.2414 19.874C14.228 20.2311 14.1949 20.3817 14.1548 20.4784C14.028 20.7846 13.7846 21.028 13.4783 21.1549C13.4012 21.1868 13.284 21.2163 13.0432 21.2327C12.7958 21.2496 12.4762 21.25 12 21.25C11.5238 21.25 11.2042 21.2496 10.9567 21.2327C10.716 21.2163 10.5988 21.1868 10.5216 21.1549C10.2154 21.028 9.97201 20.7846 9.84514 20.4784C9.80512 20.3817 9.77195 20.2311 9.75859 19.874C9.72896 19.0817 9.31997 18.3187 8.5939 17.8995C7.86784 17.4803 7.00262 17.5076 6.30158 17.8781C5.98565 18.0451 5.83863 18.0917 5.73495 18.1053C5.40626 18.1486 5.07385 18.0595 4.81084 17.8577C4.74458 17.8069 4.66045 17.7201 4.52586 17.5198C4.38751 17.314 4.22736 17.0374 3.98926 16.625C3.75115 16.2126 3.59171 15.9356 3.4826 15.7129C3.37646 15.4962 3.34338 15.3799 3.33248 15.2971C3.28921 14.9684 3.37828 14.636 3.5801 14.373C3.64376 14.2901 3.75761 14.186 4.0602 13.9959C4.73158 13.5741 5.18782 12.8384 5.18786 12.0001C5.18791 11.1616 4.73165 10.4259 4.06021 10.004C3.75769 9.81389 3.64385 9.70987 3.58019 9.62691C3.37838 9.3639 3.28931 9.03149 3.33258 8.7028C3.34348 8.62001 3.37656 8.50375 3.4827 8.28707C3.59181 8.06431 3.75125 7.78734 3.98935 7.37493C4.22746 6.96253 4.3876 6.68596 4.52596 6.48009C4.66055 6.27983 4.74468 6.19305 4.81093 6.14222C5.07395 5.9404 5.40636 5.85133 5.73504 5.8946C5.83873 5.90825 5.98576 5.95483 6.30173 6.12184C7.00273 6.49235 7.86791 6.51962 8.59394 6.10045C9.31998 5.68128 9.72896 4.91837 9.75859 4.12602C9.77195 3.76889 9.80512 3.61827 9.84514 3.52165C9.97201 3.21536 10.2154 2.97202 10.5216 2.84515Z"
                    fill="#000000"></path>
            </g>
        </symbol>
        <symbol id="notification" viewBox="0 0 24 24">
            <path
                d="M12 1c3.681 0 7 2.565 7 6v4.539c0 .642.189 1.269.545 1.803l2.2 3.298A1.517 1.517 0 0 1 20.482 19H15.5a3.5 3.5 0 1 1-7 0H3.519a1.518 1.518 0 0 1-1.265-2.359l2.2-3.299A3.25 3.25 0 0 0 5 11.539V7c0-3.435 3.318-6 7-6ZM6.5 7v4.539a4.75 4.75 0 0 1-.797 2.635l-2.2 3.298l-.003.01l.001.007l.004.006l.006.004l.007.001h16.964l.007-.001l.006-.004l.004-.006l.001-.006a.017.017 0 0 0-.003-.01l-2.199-3.299a4.753 4.753 0 0 1-.798-2.635V7c0-2.364-2.383-4.5-5.5-4.5S6.5 4.636 6.5 7ZM14 19h-4a2 2 0 1 0 4 0Z" />
        </symbol>

        <symbol id="search" viewBox="0 0 20 20" aria-hidden="true">
            <path fill-rule="evenodd"
                d="M8 4a4 4 0 100 8 4 4 0 000-8zM2 8a6 6 0 1110.89 3.476l4.817 4.817a1 1 0 01-1.414 1.414l-4.816-4.816A6 6 0 012 8z"
                clip-rule="evenodd"></path>
        </symbol>

        <symbol id="home"  viewBox="0 0 24.00 24.00" stroke="#000000" stroke-width="0.00024000000000000003">
            <g id="SVGRepo_bgCarrier" stroke-width="0"></g>
            <g id="SVGRepo_tracerCarrier" stroke-linecap="round" stroke-linejoin="round" stroke="#CCCCCC"
                stroke-width="0.43200000000000005"></g>
            <g id="SVGRepo_iconCarrier">
                <path fill-rule="evenodd" clip-rule="evenodd"
                    d="M4.18753 11.3788C4.03002 11.759 4 11.9533 4 12V20.0018C4 20.5529 4.44652 21 5 21H8V15C8 13.8954 8.89543 13 10 13H14C15.1046 13 16 13.8954 16 15V21H19C19.5535 21 20 20.5529 20 20.0018V12C20 11.9533 19.97 11.759 19.8125 11.3788C19.6662 11.0256 19.4443 10.5926 19.1547 10.1025C18.5764 9.1238 17.765 7.97999 16.8568 6.89018C15.9465 5.79788 14.9639 4.78969 14.0502 4.06454C13.5935 3.70204 13.1736 3.42608 12.8055 3.2444C12.429 3.05862 12.1641 3 12 3C11.8359 3 11.571 3.05862 11.1945 3.2444C10.8264 3.42608 10.4065 3.70204 9.94978 4.06454C9.03609 4.78969 8.05348 5.79788 7.14322 6.89018C6.23505 7.97999 5.42361 9.1238 4.8453 10.1025C4.55568 10.5926 4.33385 11.0256 4.18753 11.3788ZM10.3094 1.45091C10.8353 1.19138 11.4141 1 12 1C12.5859 1 13.1647 1.19138 13.6906 1.45091C14.2248 1.71454 14.7659 2.07921 15.2935 2.49796C16.3486 3.33531 17.4285 4.45212 18.3932 5.60982C19.3601 6.77001 20.2361 8.0012 20.8766 9.08502C21.1963 9.62614 21.4667 10.1462 21.6602 10.6134C21.8425 11.0535 22 11.5467 22 12V20.0018C22 21.6599 20.6557 23 19 23H16C14.8954 23 14 22.1046 14 21V15H10V21C10 22.1046 9.10457 23 8 23H5C3.34434 23 2 21.6599 2 20.0018V12C2 11.5467 2.15748 11.0535 2.33982 10.6134C2.53334 10.1462 2.80369 9.62614 3.12345 9.08502C3.76389 8.0012 4.63995 6.77001 5.60678 5.60982C6.57152 4.45212 7.65141 3.33531 8.70647 2.49796C9.2341 2.07921 9.77521 1.71454 10.3094 1.45091Z"
                    ></path>
            </g>
        </symbol>
        <symbol id="chat" viewBox="0 0 24 24" fill="none">


            <g id="SVGRepo_bgCarrier" stroke-width="0"></g>
            <g id="SVGRepo_tracerCarrier" stroke-linecap="round" stroke-linejoin="round"></g>
            <g id="SVGRepo_iconCarrier">
                <g id="Communication / Chat_Dots">
                    <path id="Vector"
                        d="M5.59961 19.9203L7.12357 18.7012L7.13478 18.6926C7.45249 18.4384 7.61281 18.3101 7.79168 18.2188C7.95216 18.1368 8.12328 18.0771 8.2998 18.0408C8.49877 18 8.70603 18 9.12207 18H17.8031C18.921 18 19.4806 18 19.908 17.7822C20.2843 17.5905 20.5905 17.2842 20.7822 16.9079C21 16.4805 21 15.9215 21 14.8036V7.19691C21 6.07899 21 5.5192 20.7822 5.0918C20.5905 4.71547 20.2837 4.40973 19.9074 4.21799C19.4796 4 18.9203 4 17.8002 4H6.2002C5.08009 4 4.51962 4 4.0918 4.21799C3.71547 4.40973 3.40973 4.71547 3.21799 5.0918C3 5.51962 3 6.08009 3 7.2002V18.6712C3 19.7369 3 20.2696 3.21846 20.5433C3.40845 20.7813 3.69644 20.9198 4.00098 20.9195C4.35115 20.9191 4.76744 20.5861 5.59961 19.9203Z"
                         stroke-width="2" stroke-linecap="round" stroke-linejoin="round"></path>
                </g>
            </g>
        </symbol>
        <symbol id="calendar" viewBox="0 0 24 24" fill="none">

            <g id="SVGRepo_bgCarrier" stroke-width="0"></g>
            <g id="SVGRepo_tracerCarrier" stroke-linecap="round" stroke-linejoin="round"></g>
            <g id="SVGRepo_iconCarrier">
                <path
                    d="M2 12C2 8.22876 2 6.34315 3.17157 5.17157C4.34315 4 6.22876 4 10 4H14C17.7712 4 19.6569 4 20.8284 5.17157C22 6.34315 22 8.22876 22 12V14C22 17.7712 22 19.6569 20.8284 20.8284C19.6569 22 17.7712 22 14 22H10C6.22876 22 4.34315 22 3.17157 20.8284C2 19.6569 2 17.7712 2 14V12Z"
                     stroke-width="1.5"></path>
                <path d="M7 4V2.5"  stroke-width="1.5" stroke-linecap="round"></path>
                <path d="M17 4V2.5"  stroke-width="1.5" stroke-linecap="round"></path>
                <path d="M2.5 9H21.5"  stroke-width="1.5" stroke-linecap="round"></path>
                <path
                    d="M18 17C18 17.5523 17.5523 18 17 18C16.4477 18 16 17.5523 16 17C16 16.4477 16.4477 16 17 16C17.5523 16 18 16.4477 18 17Z"
                    fill="#000000"></path>
                <path
                    d="M18 13C18 13.5523 17.5523 14 17 14C16.4477 14 16 13.5523 16 13C16 12.4477 16.4477 12 17 12C17.5523 12 18 12.4477 18 13Z"
                    fill="#000000"></path>
                <path
                    d="M13 17C13 17.5523 12.5523 18 12 18C11.4477 18 11 17.5523 11 17C11 16.4477 11.4477 16 12 16C12.5523 16 13 16.4477 13 17Z"
                    fill="#000000"></path>
                <path
                    d="M13 13C13 13.5523 12.5523 14 12 14C11.4477 14 11 13.5523 11 13C11 12.4477 11.4477 12 12 12C12.5523 12 13 12.4477 13 13Z"
                    fill="#000000"></path>
                <path
                    d="M8 17C8 17.5523 7.55228 18 7 18C6.44772 18 6 17.5523 6 17C6 16.4477 6.44772 16 7 16C7.55228 16 8 16.4477 8 17Z"
                    fill="#000000"></path>
                <path
                    d="M8 13C8 13.5523 7.55228 14 7 14C6.44772 14 6 13.5523 6 13C6 12.4477 6.44772 12 7 12C7.55228 12 8 12.4477 8 13Z"
                    fill="#000000"></path>
            </g>

        </symbol>

        <symbol id="tag" viewBox="0 0 24 24" fill="none">
            <g id="SVGRepo_bgCarrier" stroke-width="0"></g>
            <g id="SVGRepo_tracerCarrier" stroke-linecap="round" stroke-linejoin="round"></g>
            <g id="SVGRepo_iconCarrier">
                <path
                    d="M7.0498 7.0498H7.0598M10.5118 3H7.8C6.11984 3 5.27976 3 4.63803 3.32698C4.07354 3.6146 3.6146 4.07354 3.32698 4.63803C3 5.27976 3 6.11984 3 7.8V10.5118C3 11.2455 3 11.6124 3.08289 11.9577C3.15638 12.2638 3.27759 12.5564 3.44208 12.8249C3.6276 13.1276 3.88703 13.387 4.40589 13.9059L9.10589 18.6059C10.2939 19.7939 10.888 20.388 11.5729 20.6105C12.1755 20.8063 12.8245 20.8063 13.4271 20.6105C14.112 20.388 14.7061 19.7939 15.8941 18.6059L18.6059 15.8941C19.7939 14.7061 20.388 14.112 20.6105 13.4271C20.8063 12.8245 20.8063 12.1755 20.6105 11.5729C20.388 10.888 19.7939 10.2939 18.6059 9.10589L13.9059 4.40589C13.387 3.88703 13.1276 3.6276 12.8249 3.44208C12.5564 3.27759 12.2638 3.15638 11.9577 3.08289C11.6124 3 11.2455 3 10.5118 3ZM7.5498 7.0498C7.5498 7.32595 7.32595 7.5498 7.0498 7.5498C6.77366 7.5498 6.5498 7.32595 6.5498 7.0498C6.5498 6.77366 6.77366 6.5498 7.0498 6.5498C7.32595 6.5498 7.5498 6.77366 7.5498 7.0498Z"
                    stroke-width="2" stroke-linecap="round" stroke-linejoin="round"></path>
            </g>
        </symbol>

    </defs>
</svg>
